<?xml version="1.0" standalone="no"?>
<!DOCTYPE svg PUBLIC "-//W3C//DTD SVG 20010904//EN"
 "http://www.w3.org/TR/2001/REC-SVG-20010904/DTD/svg10.dtd">
<svg version="1.0" xmlns="http://www.w3.org/2000/svg"
 width="400.000000pt" height="400.000000pt" viewBox="0 0 400.000000 400.000000"
 preserveAspectRatio="xMidYMid meet">
<metadata>
Created by potrace 1.14, written by Peter Selinger 2001-2017
</metadata>
<g transform="translate(0.000000,400.000000) scale(0.100000,-0.100000)"
fill="#000000" stroke="none">
<path d="M1895 3805 c-62 -14 -989 -394 -1075 -441 -66 -36 -152 -124 -188
-193 -17 -31 -120 -274 -231 -541 -149 -362 -203 -503 -212 -557 -21 -129 -10
-164 212 -703 111 -267 214 -510 231 -541 34 -65 114 -150 174 -185 37 -22
221 -104 232 -104 3 0 -16 22 -42 50 -32 35 -46 58 -46 78 0 51 31 134 61 164
16 16 29 31 29 33 0 3 -26 12 -57 21 -98 28 -206 103 -284 198 -28 34 -73 85
-100 114 -48 51 -56 65 -74 121 -7 23 -6 24 30 18 20 -3 55 -15 78 -26 23 -10
77 -29 119 -40 76 -20 93 -30 218 -123 35 -27 70 -48 77 -48 7 0 13 -4 13 -9
0 -5 19 -18 42 -30 l43 -21 60 64 c109 117 181 145 381 150 l121 3 75 84 c41
46 93 98 116 114 22 17 41 34 41 38 1 11 -35 59 -79 105 -48 50 -106 171 -125
261 -8 41 -17 77 -19 79 -2 2 -73 21 -157 44 -85 22 -166 46 -180 54 -81 41
-178 191 -204 313 -22 103 -23 347 -2 431 22 87 63 184 79 188 8 1 32 -13 54
-32 205 -178 263 -226 312 -257 69 -43 241 -119 271 -119 12 0 60 22 109 49
73 41 164 80 245 105 10 3 30 32 44 63 22 51 35 116 70 353 3 24 7 30 13 20
16 -32 -13 -297 -46 -401 -4 -13 7 -17 61 -23 84 -8 213 -55 285 -103 30 -20
83 -63 117 -96 34 -32 66 -56 71 -53 16 10 72 152 72 183 -1 53 -93 214 -173
303 -93 102 -279 238 -349 255 -25 6 -28 4 -28 -19 0 -14 -4 -26 -9 -26 -10 0
-19 40 -26 118 -5 48 -3 53 17 61 13 4 38 4 58 -2 43 -12 166 -73 175 -87 3
-6 30 -25 58 -44 108 -69 240 -213 295 -322 24 -48 52 -150 52 -191 0 -33 -35
-127 -81 -215 l-29 -57 64 -128 c35 -70 66 -137 70 -148 3 -12 18 -28 33 -37
74 -44 118 -129 129 -248 8 -82 -7 -138 -46 -175 -25 -24 -30 -36 -30 -77 0
-118 -51 -199 -142 -228 -24 -7 -70 -26 -104 -41 -33 -15 -73 -31 -88 -35 -25
-6 -28 -10 -23 -38 4 -17 11 -57 16 -90 6 -34 8 -152 6 -280 -5 -195 -7 -222
-23 -233 -28 -20 -36 -28 -52 -51 -14 -20 -27 -23 -145 -30 -71 -4 -131 -4
-133 0 -8 18 -181 -6 -203 -29 -4 -4 -9 -33 -11 -63 l-3 -55 -41 -3 c-34 -2
-42 0 -47 17 -2 10 -18 26 -35 35 -41 21 -79 7 -93 -34 -9 -25 -16 -30 -42
-30 -62 0 -77 -9 -77 -46 0 -42 8 -47 66 -34 44 10 49 9 74 -15 14 -14 35 -25
47 -25 25 0 73 36 73 55 0 17 6 21 48 30 30 6 33 4 47 -29 32 -77 21 -87 -120
-111 -100 -18 -225 -21 -287 -8 -73 15 -61 -10 16 -35 93 -31 178 -37 261 -19
70 15 967 381 1076 439 72 38 159 125 197 197 17 31 120 274 231 541 149 362
203 503 212 558 21 128 10 163 -212 702 -111 267 -214 510 -231 541 -38 72
-125 159 -197 197 -104 56 -1005 424 -1071 438 -79 17 -126 17 -205 -1z m785
-3280 c0 -14 -221 -155 -242 -155 -12 0 -29 60 -26 91 2 27 7 34 23 32 12 -1
66 6 120 17 112 20 125 22 125 15z"/>
<path d="M1326 2832 c-2 -4 -12 -36 -22 -72 -13 -49 -18 -103 -18 -220 0 -140
3 -163 28 -245 15 -49 39 -116 53 -147 22 -50 31 -60 77 -81 56 -27 237 -87
261 -87 12 0 15 14 15 63 0 137 54 311 129 421 17 25 31 49 31 55 0 5 -26 17
-57 26 -105 31 -253 118 -393 233 -72 60 -93 71 -104 54z"/>
<path d="M2471 2634 c-44 -55 -36 -143 28 -323 43 -120 72 -181 96 -201 28
-23 27 -3 -3 51 -88 158 -96 365 -14 386 31 7 132 -40 132 -62 0 -8 -4 -15 -8
-15 -14 0 -32 -48 -32 -85 0 -55 36 -137 79 -179 35 -34 42 -37 76 -30 61 11
34 -8 -70 -51 -149 -61 -181 -105 -139 -186 25 -49 129 -93 220 -93 63 -1 76
2 98 23 49 46 59 142 25 244 -52 156 -154 322 -270 439 -105 105 -178 133
-218 82z m267 -234 c7 -12 10 -25 7 -30 -16 -26 -62 6 -51 35 8 21 29 19 44
-5z m194 -304 c3 -13 0 -23 -6 -23 -6 1 -42 -14 -80 -32 -68 -32 -176 -53
-176 -34 0 5 26 17 58 27 31 10 86 33 122 51 81 40 77 40 82 11z"/>
<path d="M2071 2504 c-47 -24 -88 -85 -113 -167 -30 -99 -22 -276 17 -392 50
-145 102 -233 157 -261 28 -14 34 -14 81 1 29 9 72 29 97 43 l45 27 -49 7
c-116 16 -226 153 -256 318 -22 120 8 253 68 300 46 37 131 22 190 -32 l22
-22 -20 -21 c-94 -100 17 -333 145 -309 23 4 35 2 35 -5 0 -6 4 -11 9 -11 16
0 23 89 10 128 -22 68 -108 233 -150 286 -60 77 -124 117 -195 122 -43 4 -68
0 -93 -12z m295 -281 c8 -30 -7 -47 -34 -39 -26 8 -34 42 -16 61 19 19 43 9
50 -22z"/>
<path d="M2849 1609 c-60 -59 -73 -67 -128 -79 -34 -7 -64 -17 -67 -22 -10
-16 68 -40 109 -34 59 10 158 53 189 83 29 27 54 92 40 104 -4 3 -23 8 -42 10
-32 4 -41 -2 -101 -62z"/>
<path d="M2180 1355 c0 -22 92 -96 157 -127 86 -41 156 -58 236 -58 88 0 123
18 148 76 22 48 19 64 -11 64 -10 0 -39 9 -65 20 -46 20 -50 20 -133 4 -96
-18 -161 -14 -266 15 -51 14 -66 15 -66 6z"/>
<path d="M1612 1203 c-96 -28 -132 -94 -132 -239 0 -131 45 -246 118 -302 32
-24 44 -27 109 -26 41 1 76 4 79 6 2 3 -11 28 -30 56 -74 111 -109 266 -88
394 7 40 15 85 18 101 7 32 3 32 -74 10z"/>
<path d="M2000 1088 c0 -42 -2 -44 -51 -68 -62 -30 -99 -90 -99 -157 l0 -43
43 0 c47 0 280 20 284 24 7 6 -29 121 -52 165 -29 58 -86 121 -109 121 -12 0
-16 -10 -16 -42z"/>
<path d="M1290 920 c-14 -5 -51 -14 -82 -20 -54 -11 -80 -30 -40 -30 63 0 232
-124 266 -195 36 -75 48 -37 22 65 -19 72 -58 140 -95 168 -33 24 -34 24 -71
12z"/>
<path d="M1510 531 c-33 -6 -35 -8 -41 -56 -3 -27 -9 -62 -13 -77 -9 -32 -7
-33 163 -102 63 -26 118 -43 122 -39 9 9 -4 16 -113 66 -32 15 -58 33 -58 41
0 7 7 33 15 56 23 65 20 99 -11 110 -14 6 -26 9 -27 9 -1 -1 -18 -4 -37 -8z"/>
</g>
</svg>
